<svg id="Layer_1" data-name="Layer 1" xmlns="http://www.w3.org/2000/svg" xmlns:xlink="http://www.w3.org/1999/xlink" viewBox="0 0 166 166"><defs><style>.cls-1,.cls-4,.cls-5,.cls-7{fill:none;}.cls-2{clip-path:url(#clip-path);}.cls-3{clip-path:url(#clip-path-2);}.cls-4,.cls-5,.cls-7{stroke:#2ee5c7;stroke-miterlimit:10;}.cls-4{stroke-width:2px;}.cls-5{opacity:0.8;}.cls-6{clip-path:url(#clip-path-3);}.cls-8{clip-path:url(#clip-path-4);}</style><clipPath id="clip-path"><circle class="cls-1" cx="83" cy="82.9" r="83"/></clipPath><clipPath id="clip-path-2"><path class="cls-1" d="M-125,172.38H42.19c90.39,3.26,162.08-40.32,177.15-98,3-11.36,7.44-37.46-8-73.21l-344.11.58"/></clipPath><clipPath id="clip-path-3"><circle class="cls-1" cx="287.1" cy="82" r="83"/></clipPath><clipPath id="clip-path-4"><circle class="cls-1" cx="83" cy="301.5" r="83"/></clipPath></defs><circle cx="83" cy="82.9" r="83"/><g class="cls-2"><g class="cls-3"><path class="cls-4" d="M-4.44,101.74H49.48a107,107,0,0,0,44.6-11.21,106.09,106.09,0,0,0,26.75-19.14l-126.67.27"/><path class="cls-5" d="M-4.54,107H46.69c16.05-.68,51.1-4,75-29.7,3.17-3.41,6.34-7.2,7.44-11.15-52.32.12-83.25.23-135.58.35"/><path class="cls-5" d="M-4.79,112h50.5c11.57,0,54.68-1.48,81.08-33.29C131.54,73,135,66.94,136.5,61.14c-61.68.13-81.95.27-143.64.41"/><path class="cls-5" d="M-18.47,117H45.71c8.66,0,66.72-1.27,90.41-42.91a67,67,0,0,0,7-17.88l-164.36.47"/><path class="cls-5" d="M-22.5,121H45.79c6,.05,71.09-.34,95.35-44.55a70.43,70.43,0,0,0,7.93-24.21l-174.74.5"/><path class="cls-5" d="M-30.78,125.19H45.85c48.19,0,88.82-18.79,102.86-50.8a66,66,0,0,0,5.42-26.34l-188.47.54"/><path class="cls-5" d="M-37.78,128.85H46.11c51.77-.73,94.83-21.68,108.71-56a68.78,68.78,0,0,0,4.81-28.48L-41.68,45"/><path class="cls-5" d="M-45.38,132.43h91C101,131.94,146.31,108.93,159.53,73a69.46,69.46,0,0,0,3.57-31.87l-212.71.35"/><path class="cls-5" d="M-53.07,136.17H45.39c57.22.9,104.23-23.48,117.76-60.83,2.91-8,5.74-20.7,2.85-38l-223.65.37"/><path class="cls-5" d="M-60.88,139.75H44.71c60.62,2.46,110.29-23.63,123.78-62.63,2.88-8.32,6.09-23,1.27-43.32l-235.55.39"/><path class="cls-5" d="M-67.42,144H44.22c64,2.36,116-26.11,129.18-67.21,2.78-8.67,6-24.78-.38-47.18L-72.61,30"/><path class="cls-5" d="M-75.91,148H43.67c68.4,2.36,123.14-28.73,135.82-72,2.63-9,5.77-26.38-2.43-50.54L-81.46,26"/><path class="cls-5" d="M-84.72,152.29H43.19c72,3.36,129.64-29.84,142.53-75.27,2.6-9.17,6.18-28.67-4.21-55.77l-272.17.46"/><path class="cls-5" d="M-94.94,157.29H42.76c76.18,2.5,136.49-33.63,149.25-81.81,2.56-9.68,6-30.53-5.73-59.24l-287.62.48"/><path class="cls-5" d="M-101.65,160.62H42.55c78,2.81,139.79-34.78,152.79-84.56,2.56-9.8,6.42-32.31-6.89-63.14l-296.8.5"/><path class="cls-5" d="M-109.7,164.68H42.42c82.25,3,147.49-36.69,161.2-89.21,2.7-10.34,6.77-34.09-7.27-66.62l-313.12.53"/><path class="cls-5" d="M-118.13,168.93H42.3c86.73,3.13,155.53-38.69,170-94.08,2.85-10.91,7.14-35.95-7.66-70.26l-330.22.56"/><path class="cls-5" d="M-125,172.38H42.19c90.39,3.26,162.08-40.32,177.15-98,3-11.36,7.44-37.46-8-73.21l-344.11.58"/></g></g><g class="cls-6"><path class="cls-7" d="M346.93,111.68,257.6,131.63,220.33,94.5l85.84-20.36Zm-38-44.16L209.18,91.61l46.4,46.23,104.07-23.6Zm3.42-4.9L198.69,90.07l55,54.59,118.58-26.89Zm3.85-5.89L186.24,88.12l62.84,62.43,135.6-30.75ZM321,49.32,170.56,85.67,243.33,158l157-35.6Zm5.28-8.06L153.5,83l83.58,83,180.33-40.89Zm5.58-8.52L135.48,80.19l95,94.35,205-46.47Zm5.56-8.49L117.53,77.38,223.89,183l229.49-52Zm5.87-8.95L98.59,74.42,217,192l255.37-57.9Zm5.1-7.8L82.1,71.84,210.9,199.78l277.92-63Zm6.17-9.41L62.2,68.73,203.61,209.19,508.72,140Zm5.4-8.25L44.75,66,197.21,217.44l328.95-74.59Zm5.71-8.71-339.38,82,164.12,163,354.14-80.3Z"/></g><g class="cls-8"><path class="cls-7" d="M77.32,349.58l5.73-13.32,5.73,13.32H131L83.05,245.86,35,349.58Zm3,5.29,2.74-7.39,2.73,7.39h53.74L83.07,232.6,26.47,354.87Zm2.33,5.06.42-1.11.42,1.11h64.35L83.08,219.71,18.17,359.93ZM156,364.84,83.09,207,10,364.84Zm10,6.58L83.11,192,0,371.42Zm9.62,6.69L83.12,177.88-9.61,378.11Zm11.57,12.51-104-225.25L-21.18,390.62Zm12.51,13.52L83.16,151.85-33.69,404.14Zm13.53,14.62L83.17,137.23-47.22,418.76ZM227,433.65,83.19,122.34-61,433.65Zm13.14,14.21L83.21,108.14-74.13,447.86Z"/></g></svg>