<svg xmlns="http://www.w3.org/2000/svg" xmlns:xlink="http://www.w3.org/1999/xlink" viewBox="0 0 166 166"><defs><style>.cls-1,.cls-3,.cls-4{fill:none;}.cls-2{clip-path:url(#clip-path);}.cls-3,.cls-4{stroke:#2ee5c7;stroke-miterlimit:10;}.cls-4{stroke-width:2px;}</style><clipPath id="clip-path"><circle class="cls-1" cx="83" cy="83" r="83"/></clipPath></defs><g id="Layer_3" data-name="Layer 3"><circle cx="83" cy="83" r="83"/><g class="cls-2"><path class="cls-3" d="M-2.46,55.19c12-23.7,24.67-31.53,34.39-34.09,7.43-2,14.71-1.27,28.51-6.18,10-3.57,12.37-6.14,19.39-8.81,8.28-3.15,21-5.63,39.39-1.47m28.51,15c-21.87-10.59-37.1-9.8-47-7.06C88.2,16,87.13,21.74,70.13,28.15,49.34,36,41.65,30.94,28,37.29,18.79,41.56,7.05,50.92-1.95,73.88M150.66,26.39c-7.92-2.33-19.81-4.58-33.21-1.77C101.39,28,98.52,35.4,80.13,43.37,56,53.82,48.19,46.59,30.16,55.78c-9.24,4.71-21.48,13.89-32,33.79M167.38,40.69C160.15,37.63,148.57,34,135,35.61c-22,2.67-27.15,16.65-54.31,24.77-20.63,6.16-25,.28-39.72,6.31C21.13,74.78,9.4,93.33,2.23,109.92m161.41-61.4a73.61,73.61,0,0,0-28.91,0C112,53.28,108.52,66.1,85.09,74.35c-22.85,8-30.06-.45-47,7.84C20.7,90.66,11.6,107.69,6.66,120.42M166,44.7c-7.24-2.67-18.42-5.61-31.27-3.58-21.45,3.37-25.31,17.05-49.64,25.79-22.84,8.21-29.68-.15-47,7.84C25.49,80.55,12.71,92.51,3,116.48M159.26,31.33c-11.81-2.32-29.21-3.77-47,3.52C101,39.47,100.79,43,88.11,49.13,63.68,61,51.06,54.31,32.93,62.68,23,67.27,10.4,76.83,0,98.82M143.08,20.54c-8.37-2.83-20.47-5.43-33.65-2.23C95.5,21.69,93.37,28.37,77.74,35.43,55.81,45.33,47.21,38,30,45.89c-9.07,4.17-21.46,13-32,34.25M132.77,9.56c-18.13-5.09-31.27-3.43-40-.88-11,3.19-12,6.9-26.23,11.92-18.94,6.68-25.39,3-37.34,8.09C20.51,32.34,9.41,40.36,0,59.89M94.94-3.26A63.89,63.89,0,0,0,83.89-2C69.63.81,68.26,6.15,55.29,9.37c-9.6,2.39-12.62.41-23.34,4.21A68.77,68.77,0,0,0,22.13,18m147.54,45a77.88,77.88,0,0,0-34.62,1C114.55,69.4,113,79.7,91.29,88.39c-24.37,9.78-34,1.42-51.59,11.76-14.26,8.39-21.89,22.15-26.12,32.65M169.67,56.18a72.64,72.64,0,0,0-32.85,0c-21.27,5.18-23.68,17-45.53,25.44-24,9.26-33.07-.42-51.51,8.87-15.89,8-25,23.17-30.52,36.76m161.06-49c-8.62-2.51-21.36-4.73-34.94-.66-15.78,4.74-16.87,13.22-34.33,21.61-22.3,10.73-32.29,2.54-48.29,12.36-8.22,5-18.22,15-24.49,36.57M170.58,81.72c-7.6-1.83-19.47-3.51-32.26.5-17.27,5.4-18.41,15.58-37.27,24.64-20.87,10-29.69,2.46-44.52,12.12-8.21,5.36-17.4,15.44-22.76,36M172.18,87.26c-8-1.7-20.29-3.06-33.17,1.64-15.08,5.5-16.11,13.87-33.17,22.33-18.33,9.1-25.25,3.46-39.73,11.49-8.28,4.6-19,13.65-27.26,33.5M168.87,97c-8.33-1.75-20.37-2.85-32.12,2.47S124.89,111.53,112.06,119c-16.54,9.6-25.29,3.56-39.33,11.48C65.25,134.68,56,143,49.37,161.23M170,104.48c-13.26-3.36-22.13-1.41-27.72.92C128.88,111,128,121.29,112.69,128.24c-10.68,4.84-14.3,1.65-24.67,5.18-9.24,3.14-21.25,10.73-32.28,30.76m114.82-52.69C164.2,110,154.69,109,145.28,113c-12.09,5.22-12.17,13.82-25.22,20.48-12.44,6.34-18,1.37-29.6,6.93-6.85,3.27-15.52,10-22.54,25.58m101.42-46.9c-4.64-1.46-11.29-2.73-18.28-.61-12.18,3.7-12.76,13.89-25.88,21-11.64,6.32-16.56,1.23-28.33,6.7-7,3.27-15.84,10-23.14,25.27m95.93-42c-5.57-1.66-14-3.18-22.53,0-11.53,4.29-11.57,12.82-24.37,18.57-11.19,5-16.71,1-24.67,7-6.2,4.68-8.81,11.63-10,16.44m75.23-35.93a30.16,30.16,0,0,0-17,1.22c-10.32,4.13-9.85,11.8-21.16,17.79-9.57,5.07-15.56,2.56-20,8.47-3,4.05-3.16,9.17-2.74,13M174.08,70c-10.19-2.78-24.94-5-40.27.21-15.57,5.33-16.58,13.19-34.33,21.61-22.22,10.54-31.59,3.42-48.29,12.35-9.5,5.08-21.41,15.38-30.17,38.61"/></g><path d="M80.4,51.83m17.49,49-2.76-34.7L130,61.74s-18.09,40.08-21.18,43.67-32.9,11.27-36.95,10.29S38.23,93.93,38.23,93.93L69.08,73.7,80.4,51.83ZM130,61.74,38.23,93.93"/><path class="cls-4" d="M57.46,96.15,80.4,51.83,112.55,83M80.4,51.83l17.49,49m0,0M69.08,73.7,38.23,93.93s29.55,20.79,33.59,21.77,33.86-6.69,37-10.29S130,61.74,130,61.74L95.13,66.11M38.23,93.93l59.66,6.88L130,61.74"/></g></svg>