<svg xmlns="http://www.w3.org/2000/svg" xmlns:xlink="http://www.w3.org/1999/xlink" viewBox="0 0 166 166"><defs><style>.cls-1,.cls-3,.cls-4{fill:none;}.cls-2{clip-path:url(#clip-path);}.cls-3,.cls-4{stroke:#2ee5c7;stroke-miterlimit:10;}.cls-3{opacity:0.8;}.cls-4{stroke-width:2px;}</style><clipPath id="clip-path"><circle class="cls-1" cx="83" cy="83" r="83"/></clipPath></defs><g id="Layer_3" data-name="Layer 3"><circle cx="83" cy="83" r="83"/><g class="cls-2"><path class="cls-3" d="M-2.26,94.47l30.6,47a1.38,1.38,0,0,0,.22.26,80.65,80.65,0,0,0,9.62,7.64A1.32,1.32,0,0,0,40,147.59L3.48,91.32a1.31,1.31,0,0,1-.21-.6C3,88.18,2.9,85.6,2.9,83v0a1.31,1.31,0,0,1,2.41-.71l48.85,75.23a1.29,1.29,0,0,0,.65.52c1.94.73,3.93,1.39,5.94,2a1.31,1.31,0,0,0,1.46-2L4.47,69.08a1.38,1.38,0,0,1-.19-1q.51-2.7,1.19-5.33a1.32,1.32,0,0,1,2.38-.39L72.5,161.94a1.35,1.35,0,0,0,1,.6c1.63.19,3.28.34,4.94.43a1.32,1.32,0,0,0,1.18-2L9.38,52.86a1.34,1.34,0,0,1-.11-1.23c.61-1.42,1.25-2.82,1.94-4.2a1.32,1.32,0,0,1,2.28-.14l74.65,115a1.32,1.32,0,0,0,1.22.6c1.47-.11,2.92-.27,4.37-.46a1.32,1.32,0,0,0,.91-2L16.41,39.9a1.28,1.28,0,0,1,0-1.44c.76-1.15,1.57-2.28,2.4-3.39a1.3,1.3,0,0,1,2.15.06L102.05,159.9a1.34,1.34,0,0,0,1.44.56c1.33-.35,2.64-.74,3.94-1.15a1.32,1.32,0,0,0,.69-2L25,29.28a1.33,1.33,0,0,1,.15-1.63c.92-1,1.87-1.91,2.84-2.83a1.32,1.32,0,0,1,2,.25l84.65,130.35a1.32,1.32,0,0,0,1.65.48c1.2-.55,2.38-1.12,3.55-1.73a1.32,1.32,0,0,0,.49-1.88L34.75,20.59a1.33,1.33,0,0,1,.31-1.77c1-.78,2.11-1.54,3.2-2.27a1.31,1.31,0,0,1,1.83.38l85.82,132.14a1.31,1.31,0,0,0,1.83.38c1.09-.73,2.15-1.49,3.2-2.27a1.33,1.33,0,0,0,.31-1.77L45.72,13.71a1.31,1.31,0,0,1,.49-1.88c1.17-.61,2.35-1.18,3.56-1.73a1.31,1.31,0,0,1,1.64.48l84.65,130.35a1.32,1.32,0,0,0,2,.25c1-.92,1.92-1.86,2.84-2.83a1.33,1.33,0,0,0,.15-1.63L57.88,8.66a1.32,1.32,0,0,1,.69-2c1.3-.41,2.61-.8,3.94-1.15A1.34,1.34,0,0,1,64,6.1l81,124.8a1.31,1.31,0,0,0,2.15.09c.84-1.13,1.66-2.27,2.44-3.44a1.31,1.31,0,0,0,0-1.46L71.36,5.63a1.31,1.31,0,0,1,.91-2c1.44-.19,2.9-.35,4.38-.46a1.32,1.32,0,0,1,1.21.6l74.65,115a1.31,1.31,0,0,0,2.28-.14q1-2.06,1.93-4.19a1.31,1.31,0,0,0-.1-1.23L86.43,5.06a1.31,1.31,0,0,1,1.18-2c1.66.09,3.31.24,4.94.43a1.35,1.35,0,0,1,1,.6l64.65,99.55a1.32,1.32,0,0,0,2.38-.39q.67-2.62,1.19-5.33a1.38,1.38,0,0,0-.19-1L103.79,8a1.31,1.31,0,0,1,1.45-2c2,.58,4,1.24,6,2a1.29,1.29,0,0,1,.65.52L160.7,83.76a1.31,1.31,0,0,0,2.4-.72v0c0-2.65-.12-5.21-.37-7.79a1.44,1.44,0,0,0-.21-.6L126,18.41a1.31,1.31,0,0,1,1.83-1.81,80.65,80.65,0,0,1,9.62,7.64,1.38,1.38,0,0,1,.22.26l32.5,50"/></g><path d="M28,121.57A164.34,164.34,0,0,1,58.54,85.12,233.11,233.11,0,0,1,81.22,66.73c15.71-11.24,37.7-30.25,43.39-35a5.44,5.44,0,0,1,4.49-1.16,7.17,7.17,0,0,1,3.9,1.81c2.44,2.65,1.68,9.11-1.75,11.36-10.5,6.9-17.31,8.57-31.52,20.41-2.45,2-9.11,8.54-7.94,15.77C92.9,86.75,101,91.78,101,91.78,58,131.48,28,121.57,28,121.57Z"/><path class="cls-4" d="M28,121.57A164.34,164.34,0,0,1,58.54,85.12,233.11,233.11,0,0,1,81.22,66.73c15.71-11.24,37.7-30.25,43.39-35a5.44,5.44,0,0,1,4.49-1.16,7.17,7.17,0,0,1,3.9,1.81c2.44,2.65,1.68,9.11-1.75,11.36-10.5,6.9-17.31,8.57-31.52,20.41-2.45,2-9.11,8.54-7.94,15.77C92.9,86.75,101,91.78,101,91.78,58,131.48,28,121.57,28,121.57Z"/><path class="cls-4" d="M81.22,66.73a58.82,58.82,0,0,0,19.81,25"/></g></svg>