<svg id="Layer_1" data-name="Layer 1" xmlns="http://www.w3.org/2000/svg" xmlns:xlink="http://www.w3.org/1999/xlink" viewBox="0 0 166 166"><defs><style>.cls-1,.cls-4,.cls-6{fill:none;}.cls-2{clip-path:url(#clip-path);}.cls-3{clip-path:url(#clip-path-2);}.cls-4,.cls-6,.cls-7{stroke:#2ee5c7;stroke-miterlimit:10;}.cls-4{opacity:0.8;}.cls-5{clip-path:url(#clip-path-3);}.cls-7{stroke-width:2px;}.cls-8{clip-path:url(#clip-path-4);}.cls-9{clip-path:url(#clip-path-5);}</style><clipPath id="clip-path"><circle class="cls-1" cx="-121.1" cy="83.9" r="83"/></clipPath><clipPath id="clip-path-2"><path class="cls-1" d="M-329.08,173.38h167.17c90.39,3.26,162.09-40.32,177.15-98,3-11.36,7.44-37.46-8-73.21l-344.1.58"/></clipPath><clipPath id="clip-path-3"><circle class="cls-1" cx="83" cy="83" r="83"/></clipPath><clipPath id="clip-path-4"><circle class="cls-1" cx="-121.1" cy="302.5" r="83"/></clipPath><clipPath id="clip-path-5"><circle class="cls-1" cx="101.46" cy="302.5" r="83"/></clipPath></defs><g class="cls-2"><g class="cls-3"><path class="cls-4" d="M-313.8,165.68h152.13C-79.42,168.65-14.19,129-.48,76.47,2.22,66.13,6.29,42.38-7.74,9.85l-313.13.53"/><path class="cls-4" d="M-322.23,169.93H-161.8c86.74,3.13,155.54-38.69,170-94.08C11,64.94,15.33,39.9.53,5.59l-330.21.56"/><path class="cls-4" d="M-329.08,173.38h167.17c90.39,3.26,162.09-40.32,177.15-98,3-11.36,7.44-37.46-8-73.21l-344.1.58"/></g></g><circle cx="83" cy="83" r="83"/><g class="cls-5"><path class="cls-6" d="M142.83,112.68,53.51,132.63,16.23,95.5l85.84-20.36Zm-38-44.16L5.08,92.61l46.4,46.23,104.08-23.6Zm3.41-4.9L-5.41,91.07l55,54.59,118.58-26.89Zm3.86-5.89L-17.86,89.12,45,151.55l135.6-30.75Zm4.85-7.41L-33.53,86.67,39.24,159l157-35.6Zm5.28-8.06L-50.59,84,33,167l180.33-40.89Zm5.59-8.52L-68.62,81.19l95,94.35,205-46.47Zm5.55-8.49L-86.56,78.38,19.8,184l229.48-52Zm5.87-8.95L-105.51,75.42,12.85,193l255.38-57.9Zm5.11-7.8L-122,72.84,6.8,200.78l277.92-63ZM150.5-.91-141.9,69.73-.49,210.19,304.62,141Zm5.4-8.25L-159.34,67-6.89,218.44l329-74.59Zm5.71-8.71-339.38,82,164.13,163,354.13-80.3Z"/></g><path class="cls-7" d="M34,99.19c-.8-2.78-.43-5.37.24-10,.3-2.08,1.07-7.44,2.51-10.3,3.61-7.21,14.67-5.21,36.59-9.06,19.15-3.35,24.13-7.22,31.74-3.32.32.16.25.14,12.72,9.71,8.51,6.53,9.55,7.31,10.7,9.23,3.4,5.66,3.72,14.43.06,20.37-4,6.57-10.32,5.39-33.89,11-22.41,5.38-26.77,8.86-34.36,5.49-4.49-2-2.68-3.09-15.64-12.44C38.77,105.62,35.32,103.63,34,99.19Z"/><g class="cls-8"><path class="cls-6" d="M-126.78,350.58l5.74-13.32,5.72,13.32h42.18L-121,246.86l-48,103.72Zm3,5.29,2.74-7.39,2.73,7.39h53.74L-121,233.6l-56.6,122.27Zm2.34,5.06.41-1.11.42,1.11h64.35L-121,220.71l-64.91,140.22Zm73.34,4.91L-121,208l-73.07,157.86Zm10,6.58L-121,193-204.1,372.42Zm9.62,6.69L-121,178.88l-92.74,200.23Zm11.57,12.51L-121,166.37-225.28,391.62ZM-4.4,405.14-120.94,152.85-237.79,405.14ZM9.13,419.76l-130-281.53-130.4,281.53ZM22.9,434.65-120.91,123.34-265.09,434.65ZM36,448.86-120.89,109.14-278.23,448.86Z"/></g><g class="cls-9"><path class="cls-6" d="M73.44,400.66l30.27-97.75L70.89,316l19.42-81.89,27.81-6-17.81,58.09,34.75-11.25L81.74,402.05m6.1.86,55-133.92-34.63,9.43,16.18-55.7-38.31,9.13L65,323.2l31.13-12L68.82,400.6M94,404.66l55.77-141.59-34.4,10.14,15.93-55.41L81.65,228.08,57.75,331.51l31.76-13.08L64,399m32.38,13.09,61.1-155.14L121,267.7l15.93-54.35L79,224.48,51.74,340.42,81.07,326.9,55.55,407.53m42,15L165,251.07,127.73,262l16.61-55.05-68,13.3L45.19,349.33,73.6,335.39,46.4,416.48m52.42,15.65,73.55-186.76-37.62,10.88,16.9-55.59L72.56,216.15,39.49,357.6l26.95-14.19L38.15,425.59m60,18.51,80.26-203.78-37.06,10.53,21-63.32L70.68,205.79,33.93,365.92l24.9-13.62L28.21,435.88m70.53,18.44,86.66-220-37,10.37L171,176.3,68.07,197,28.37,373.89l23.89-13.7-32,85.27M193.6,225.92,99,466.13M22.17,378.31l43.34-193.1M201,218.73,99.55,476.26M17.19,382.11l46.47-207m145.76,34.54L100.83,485.34M12.64,384.54,62.4,162.9m38.8,332.36L216.48,202.58M7.59,388.26,60.4,153m162.06,45.63L100.58,508.07M1.6,394.94,57.44,146.16M229.1,192.29,101.21,517M-2.63,398.27,56,137.26m45.71,388.26,133.64-339.3M-6.84,401.47,54.38,128.72m187.55,51L102.09,534.73M-11.46,404.92,52.6,119.51"/></g></svg>