<svg id="Layer_1" data-name="Layer 1" xmlns="http://www.w3.org/2000/svg" xmlns:xlink="http://www.w3.org/1999/xlink" viewBox="0 0 166 166"><defs><style>.cls-1,.cls-3,.cls-5{fill:none;}.cls-2{clip-path:url(#clip-path);}.cls-3,.cls-5{stroke:#2ee5c7;stroke-miterlimit:10;}.cls-3{stroke-width:2px;}.cls-4{clip-path:url(#clip-path-2);}</style><clipPath id="clip-path"><circle class="cls-1" cx="83" cy="83" r="83"/></clipPath><clipPath id="clip-path-2"><rect class="cls-1" x="-3" y="103.27" width="181.49" height="85"/></clipPath></defs><circle cx="83" cy="83" r="83"/><g class="cls-2"><path class="cls-3" d="M49.73,91.57H38.05V79.89H49.73ZM76.36,68.21H64.67V79.89H76.36ZM103,56.53H91.3V68.21H103Zm26.63-11.68H117.93V56.53h11.68Zm-80.22,35H168.53M67.77,68.21h99.59M92.79,56.53h71.64m-38.7-11.68H163m10.09,46.72H23.1v11.69H1.93m116-58.41L103,56.53H91.3L76.36,68.21H64.67L49.73,79.89H38.05L7.48,103.26m165.61-7.42H23.1m150,4.26H23.1m150-16.5H49.73m123.36,4.27H49.73M173.09,72.1H76.34M173.09,76H76.34m96.75,27.26H23.1M50.52,91.57m123.36,0-5.35-31.15H103m65.5,3.9H103m65.5-15.58H129.61m38.92,3.89H129.61"/><g class="cls-4"><path class="cls-5" d="M59.12,166a43.73,43.73,0,0,0,7.73-9.2c3.22-5.13,3.38-7.83,4.9-10.36,6.8-11.31,35.41-10.2,38.07-2.83,1.58,4.39-6.43,9.87-4.39,19.32a15.64,15.64,0,0,0,1,3.07m-6.6,0a24,24,0,0,1-.17-3.36c.16-8.8,5-11.76,3.9-15.35-1.5-4.94-13.27-8-21.82-3.87a18.85,18.85,0,0,0-7,6m18.92,17.87a12,12,0,0,1-1-2.86c-1.09-5.57,2.51-8.94,1-11.26-1.17-1.75-4.35-1.49-5.84-1.38a13,13,0,0,0-8.55,4.61m.17,11.85a16.62,16.62,0,0,0,.53-10.4,17.15,17.15,0,0,0-8.81-10.35m54.49,9.15c-4.28,1.18-10.4,2.37-12.35-.29-3-4.17,7.62-13.21,4.62-19.65-3.39-7.27-21.46-5.29-25-4.9-7,.77-18,2-26,10.08-5.41,5.5-6.34,11-14.13,15.73a30.55,30.55,0,0,1-8.86,3.57m98.5-17.46c-7.95,4.44-16.8,8.46-19.45,5.68-3.22-3.39,6.23-13.26,2.53-19.41s-18-4.15-34-1.88C80,129.78,74.2,130.6,68.62,133.54c-9.13,4.82-13.47,11.29-21.06,10.64a15.85,15.85,0,0,1-8.75-4m112-5.77c-14.93,11.07-20.7,12.75-22.56,11.07-3.07-2.78,5.62-13.63,1.13-19.73-3.05-4.15-10.51-3.8-18.73-3.41-5,.24-7.32.87-17.6,2.94-25.47,5.14-25.39,4.11-30.66,6.57-5.94,2.79-8.34,5.18-13.5,5-3.2-.1-6.53-1.51-13-4.32-9-3.88-10.95-5.65-13.34-4.68-1.91.77-4.09,3.3-4.68,11.49m140.67-15.3c-14.16,11.82-19.48,13.64-21.25,12.19-2.47-2,2.88-9.57-.52-14.78-2.65-4.05-9.16-4.47-18.76-4-19.64,1-24,4.4-39.27,5.84-17.48,1.65-26.22,2.47-36-.86-4.42-1.5-13.77-5.39-23-1.71a21.89,21.89,0,0,0-3.45,1.75M17,116c.12,0,.33-.13.6-.21,1.29-.36,3.15-.3,12.53-.59,5.11-.16,5.3-.31,7.36-.32,8.36-.07,14.57,2.32,18.18,3.44,11.9,3.69,23.33,2.2,34.55.73,12.31-1.61,11.63-3.78,24.41-5,9.07-.9,22.93-2.12,27.49,4.87,2.35,3.61.74,7.12,2.89,8.39,3.64,2.16,12.22-5.63,18.84-12.47m0-2.79c-2.77,3.15-6.87,6.82-11,6.11-2.68-.46-4.13-2.54-5.52-3.94-5.91-6-16.22-5.14-26-4.35-16.14,1.3-16.86,6.07-32.92,7-5.5.31-11,.62-18-1.06C58.52,113,57.51,108,48.66,107.71s-8.95,4.35-20.67,4.53c-5.84.09-9.61-1-15,1.18a22.49,22.49,0,0,0-7.68,5.32M163.85,109c-2,1.85-4.84,4-7.56,3.29a5.52,5.52,0,0,1-2.91-2.08c-5.18-6.22-29.83-2.4-31.85-2.07-18.35,2.95-20.35,4.86-33.18,5.66-9,.55-13.38,0-18-1.06C58.52,110,57.51,105,48.66,104.71c-6.37-.23-8.21,2.11-13.08,3.52a34.69,34.69,0,0,1-7.59,1c-7.15.48-9.46-.2-15.31.05a67.51,67.51,0,0,0-10.39,1.24m0-3.73c3.78.36,6.94.55,9.25.66a109.33,109.33,0,0,0,16.2-.15c4.44-.45,6.66-.68,8.55-1.64,3.1-1.57,4-3.47,7.7-4.31a18.72,18.72,0,0,1,4.67-.38c8.85.32,9.86,5.26,21.66,8.07.78.19,1.92.41,4.2.82a82.78,82.78,0,0,0,13.93,1.67A44.83,44.83,0,0,0,99,110.13c7.89-1.66,17.18-3.37,23.25-4.23,3.91-.56,23.69-3.23,30.91-.45a13.88,13.88,0,0,0,5.43,1,13.73,13.73,0,0,0,5.26-1.18M2.22,103.8c3.77.36,6.94.55,9.25.66a109.33,109.33,0,0,0,16.2-.15c4.43-.45,6.65-.68,8.54-1.64,3.11-1.57,4-3.47,7.71-4.31A19.24,19.24,0,0,1,48.59,98c8.84.32,9.86,5.26,21.66,8.07.78.19,1.91.41,4.19.82a106.83,106.83,0,0,0,13.93,1.67c3.79.14,6.62-.15,13.74-1.17,10.31-1.47,13.23-2.13,20.81-3.3,23.31-3.57,28.33-2.33,30.17-1.62a13.41,13.41,0,0,0,10.69-.14M2.22,100.63c3.77.36,6.94.55,9.25.66a107.75,107.75,0,0,0,16.2-.15c4.43-.45,6.65-.67,8.54-1.63,3.11-1.58,4-3.47,7.71-4.31a18.89,18.89,0,0,1,4.67-.39c8.84.32,9.86,5.26,21.66,8.08.78.18,1.91.4,4.19.81a108.19,108.19,0,0,0,13.93,1.68c3.79.14,6.62-.15,13.74-1.17,10.31-1.48,13.23-2.14,20.81-3.3,23.31-3.58,28.33-2.34,30.17-1.63a13.41,13.41,0,0,0,10.69-.14M39,134c-.3,4.28-.43,8.91-.32,13.83q.1,4.33.42,8.31M27.23,128.67a50.82,50.82,0,0,0,4.33,22.57"/></g></g></svg>