<svg id="Layer_1" data-name="Layer 1" xmlns="http://www.w3.org/2000/svg" xmlns:xlink="http://www.w3.org/1999/xlink" viewBox="0 0 166 166"><defs><style>.cls-1,.cls-3,.cls-5{fill:none;}.cls-2{clip-path:url(#clip-path);}.cls-3,.cls-5{stroke:#2ee5c7;stroke-miterlimit:10;}.cls-4{clip-path:url(#clip-path-2);}.cls-5{stroke-width:2px;}.cls-6{clip-path:url(#clip-path-3);}</style><clipPath id="clip-path"><circle class="cls-1" cx="64.54" cy="-136.6" r="83"/></clipPath><clipPath id="clip-path-2"><circle class="cls-1" cx="-139.55" cy="82.9" r="83"/></clipPath><clipPath id="clip-path-3"><circle class="cls-1" cx="83" cy="82.9" r="83"/></clipPath></defs><g class="cls-2"><path class="cls-3" d="M124.38-106.93,35.05-87-2.22-124.11l85.84-20.35Zm-38-44.15L-13.38-127,33-80.76l104.07-23.6Zm3.42-4.9L-23.86-128.53l55,54.59,118.58-26.89Zm3.85-5.89L-36.31-130.48,26.53-68.06,162.12-98.8Zm4.86-7.41L-52-132.93,20.78-60.65l157-35.6Zm5.28-8.07L-69-135.6l83.58,83L194.86-93.47Zm5.58-8.52L-87.07-138.42l95,94.36,205-46.47Zm5.56-8.48L-105-141.22,1.34-35.58l229.49-52Zm5.86-9L-124-144.19-5.6-26.62,249.77-84.53Zm5.11-7.8-266.34,64.34,128.81,128,277.92-63Zm6.16-9.4-292.39,70.63L-18.95-9.42,286.16-78.6Zm5.41-8.25L-177.8-152.61-25.34-1.17l329-74.59Zm5.7-8.71-339.38,82L-32.1,7.54,322-72.75Z"/></g><g class="cls-4"><path class="cls-3" d="M-145.23,131l5.73-13.33,5.73,13.33h42.18L-139.5,27.26l-48,103.72Zm3,5.29,2.74-7.39,2.74,7.39H-83L-139.49,14l-56.59,122.27Zm2.34,5.06.42-1.11.42,1.11h64.34L-139.47,1.1l-64.91,140.23Zm73.34,4.91L-139.46-11.62l-73.07,157.86Zm10,6.57-82.9-179.44-83.1,179.44Zm9.62,6.7-92.5-200.24-92.74,200.24ZM-35.36,172l-104-225.24L-243.74,172Zm12.51,13.53L-139.4-66.75-256.25,185.54Zm13.52,14.62-130-281.54L-269.77,200.16ZM4.44,215l-143.8-311.3L-283.54,215Zm13.15,14.21L-139.34-110.47-296.69,229.25Z"/></g><circle cx="83" cy="82.9" r="83"/><polygon class="cls-5" points="75.86 18.46 92.66 14.47 75.86 72.57 108.61 62.32 67.81 157.97 93.25 75.3 59.43 88.34 75.86 18.46"/><g class="cls-6"><path class="cls-3" d="M55,181.06,85.25,83.3l-32.82,13L71.86,14.46l27.8-6-17.8,58.1,34.75-11.25L63.28,182.45m6.1.85,55-133.92L89.78,58.81,106,3.12,67.65,12.25,46.54,103.6l31.14-12L50.37,181m25.14,4.07,55.76-141.6L96.87,53.6,112.81-1.8,63.19,8.47,39.29,111.9,71.05,98.82,45.53,179.37m32.38,13.08L139,37.32,102.55,48.09,118.49-6.26,60.56,4.88,33.28,120.82l29.33-13.53L37.09,187.93m42,14.95L146.56,31.47l-37.29,10.9,16.61-55L57.88.62,26.74,129.73l28.4-13.95L28,196.88m52.41,15.65L153.92,25.77,116.3,36.65l16.9-55.59L54.1-3.45,21,138,48,123.81,19.69,206m60,18.5L160,20.72,122.89,31.24l21-63.32L52.22-13.81,15.47,146.31l24.9-13.61L9.75,216.28m70.54,18.44,86.65-220-37,10.36,22.64-68.37L49.62-22.59,9.92,154.28l23.89-13.7-32,85.27M175.15,6.32,80.54,246.53M3.71,158.71,47.06-34.39M182.53-.88,81.1,256.66M-1.27,162.5l46.47-207M191-10,82.37,265.74M-5.81,164.94,43.94-56.71m38.8,332.37L198-17M-10.86,168.65,42-66.63M204-21,82.12,288.47m-99-113.14L39-73.44M210.64-27.32,82.76,297.37M-21.08,178.67l58.58-261M83.22,305.92,216.86-33.39M-25.3,181.87,35.92-90.89m187.56,51L83.63,315.12M-29.92,185.32,34.15-100.1"/></g></svg>