<svg xmlns="http://www.w3.org/2000/svg" xmlns:xlink="http://www.w3.org/1999/xlink" viewBox="0 0 166 166"><defs><style>.cls-1,.cls-3,.cls-4{fill:none;}.cls-2{clip-path:url(#clip-path);}.cls-3,.cls-4{stroke:#2ee5c7;stroke-miterlimit:10;}.cls-3{stroke-width:0.75px;}.cls-4{stroke-width:2px;}</style><clipPath id="clip-path"><circle class="cls-1" cx="83" cy="83" r="83"/></clipPath></defs><g id="Layer_3" data-name="Layer 3"><circle cx="83" cy="83" r="83"/><g class="cls-2"><path class="cls-3" d="M94.81-1.42c-.75,3.65-10.87,57.12,25.62,90.36,15.37,14,32.73,18.69,42.58,20.46M105,.08c-.66,3.24-9.66,50.77,22.78,80.31C141.42,92.83,156.85,97,165.61,98.58M116.82,4.08c-.56,2.73-8.13,42.71,19.16,67.56a63.87,63.87,0,0,0,31.83,15.3M127.11,7c-.46,2.2-6.55,34.43,15.44,54.46a51.47,51.47,0,0,0,25.66,12.33M139,11.28c-.34,1.68-5,26.29,11.8,41.59a39.34,39.34,0,0,0,19.59,9.41m-22.5-47.9c-.24,1.2-3.58,18.84,8.46,29.81a28.13,28.13,0,0,0,14,6.75m-15.28,76.14a385.4,385.4,0,0,0-47.63-5.6c-7-.37-16.43,21.42-24,21.41-8.32,0-17.94-21.78-25.64-21.35a394.26,394.26,0,0,0-47,5.54m57,1.84a421.57,421.57,0,0,0-57,5.92m144.26,0a424.07,424.07,0,0,0-57-5.93M75.8,138a422.26,422.26,0,0,0-64.93,6.14m144.26,0A421.47,421.47,0,0,0,91.26,138m63.87,14.23a422.65,422.65,0,0,0-144.26,0m144.26,9.19a423.33,423.33,0,0,0-144.26,0M155.13,170a422.65,422.65,0,0,0-144.26,0M100-.72c-.71,3.43-10.23,53.73,24.1,85,14.45,13.17,30.78,17.58,40.05,19.25M110.89,2.18c-.61,2.95-8.8,46.25,20.74,73.17,12.45,11.33,26.5,15.13,34.48,16.56M122.34,7.48c-.49,2.38-7.09,37.25,16.7,58.93a55.77,55.77,0,0,0,27.77,13.34M133.76,12.08c-.38,1.83-5.46,28.69,12.87,45.38A43,43,0,0,0,168,67.74M143.87,13.08c-.3,1.45-4.31,22.65,10.16,35.83A33.91,33.91,0,0,0,170.91,57M2.9,109.4c9.85-1.77,27.21-6.47,42.58-20.46C82,55.7,71.85,2.23,71.1-1.42M.3,98.58C9.06,97,24.49,92.83,38.14,80.39,70.58,50.85,61.58,3.32,60.91.08M-1.9,86.94a63.9,63.9,0,0,0,31.83-15.3C57.22,46.79,49.65,6.81,49.09,4.08M-2.3,73.77A51.47,51.47,0,0,0,23.36,61.44C45.35,41.41,39.25,9.18,38.8,7M-4.5,62.28a39.34,39.34,0,0,0,19.59-9.41C31.89,37.57,27.23,13,26.88,11.28M-4.5,50.94a28.17,28.17,0,0,0,14-6.75c12-11,8.7-28.61,8.46-29.81M1.8,103.53c9.27-1.67,25.6-6.08,40.05-19.25C76.18,53,66.66,2.71,66-.72M-.2,91.91c8-1.43,22-5.23,34.48-16.56C63.82,48.43,55.63,5.13,55,2.18M-.9,79.75A55.81,55.81,0,0,0,26.87,66.41C50.66,44.73,44.06,9.86,43.57,7.48M-2.1,67.74A43,43,0,0,0,19.28,57.46C37.61,40.77,32.53,13.91,32.15,12.08M-5,57a34,34,0,0,0,16.88-8.12C26.35,35.73,22.34,14.53,22,13.08M155.13,165.81a422.65,422.65,0,0,0-144.26,0M155.13,157a422.65,422.65,0,0,0-144.26,0m69.25-15.19A422.9,422.9,0,0,0,10.87,148m144.26,0a422.13,422.13,0,0,0-68.47-6.18m-14.94-8.27a422.08,422.08,0,0,0-60.85,6.05m144.26,0a422.33,422.33,0,0,0-60.61-6m-29-8.36A423.06,423.06,0,0,0,11.87,131m144.26,0a422.16,422.16,0,0,0-53.8-5.8"/><path class="cls-4" d="M79.77,129.69c-5.07-7.9-16-22-31.94-26.94a2.9,2.9,0,0,1-.76-5.17C68,83.58,77.52,53,81.13,37.48a1.92,1.92,0,0,1,3.74,0C88.48,53,98,83.58,118.93,97.58a2.9,2.9,0,0,1-.76,5.17c-15.94,5-26.87,19-31.94,26.94A3.84,3.84,0,0,1,79.77,129.69Z"/><path class="cls-4" d="M46.18,100.58s4.46,5,37,5,37.2-5,37.2-5"/></g></g></svg>