<svg xmlns="http://www.w3.org/2000/svg" xmlns:xlink="http://www.w3.org/1999/xlink" viewBox="0 0 166 166"><defs><style>.cls-1,.cls-3,.cls-4{fill:none;}.cls-2{clip-path:url(#clip-path);}.cls-3,.cls-4{stroke:#2ee5c7;stroke-miterlimit:10;}.cls-3{stroke-width:2px;}</style><clipPath id="clip-path"><circle class="cls-1" cx="83" cy="83" r="83"/></clipPath></defs><g id="Layer_3" data-name="Layer 3"><circle cx="83" cy="83" r="83"/><g class="cls-2"><path class="cls-3" d="M122.3,60.18C122.3,75,104.7,87,83,87S43.7,75,43.7,60.18,61.3,33.33,83,33.33,122.3,45.35,122.3,60.18ZM83,67.63c-12.73,0-23,5.61-23,12.53S70.27,92.69,83,92.69s23-5.61,23-12.53S95.73,67.63,83,67.63ZM83,72c-15.16,0-27.45,7.28-27.45,16.26S67.84,104.49,83,104.49s27.45-7.28,27.45-16.26S98.16,72,83,72Zm0,0C61.3,72,43.7,84,43.7,98.82S61.3,125.68,83,125.68s39.3-12,39.3-26.86S104.7,72,83,72Zm0,0c-17.42,0-31.55,9.65-31.55,21.56S65.58,115.09,83,115.09s31.55-9.66,31.55-21.56S100.42,72,83,72Zm.59-23.55c-17.75,0-32.14,8.64-32.14,19.31S65.84,87,83.59,87s32.13-8.64,32.13-19.3S101.33,48.42,83.59,48.42ZM79.72,72.08a33.82,33.82,0,0,0,1-3.46c.61-2.63,1.57-8.13-.8-20.07a113.24,113.24,0,0,0-4-14.79m26.62,3.11A61.38,61.38,0,0,0,97.2,50.23c-1.42,5.28-3,11.68-1.29,19.3a29.62,29.62,0,0,0,1.32,4.28m-30.1,1.08a19.36,19.36,0,0,0,.94-4.27c.75-7.3-2.9-13.1-5.62-17.43a47.47,47.47,0,0,0-9.12-10.61M44.4,103.85c10.5-5.33,16.53-15.51,15.21-24.79a22.35,22.35,0,0,0-7.87-13.89,21.37,21.37,0,0,0-7.56-3.92m77.92-3.76a37.28,37.28,0,0,0-8.68,7.92c-2.78,3.5-6.21,7.8-6.74,14.18-.63,7.64,3.32,13.35,4.73,15.38a27.45,27.45,0,0,0,10.21,8.85m-60.2,17.45a47.88,47.88,0,0,0,8.81-18.64c1.42-6.63.56-10.64.23-12A22.89,22.89,0,0,0,68,84.6m13.65,41.06a82,82,0,0,0,2.52-10.76c1.07-6.51,2.07-13,.12-20.6A36.35,36.35,0,0,0,81.51,87M97.9,85a45.88,45.88,0,0,0-.34,14.59c.59,4.27,1.26,9.1,4.73,13.94a24.34,24.34,0,0,0,6,5.84"/><path class="cls-4" d="M134.09,58.58C134.09,38.36,111.22,22,83,22S31.91,38.36,31.91,58.58c0,7.82,3.44,15.07,9.27,21-5.83,6-9.27,13.19-9.27,21,0,20.22,22.87,36.61,51.09,36.61s51.09-16.39,51.09-36.61c0-7.82-3.44-15.06-9.27-21C130.65,73.65,134.09,66.4,134.09,58.58Z"/><path class="cls-4" d="M138.69,58.58C138.69,35.59,113.76,17,83,17S27.31,35.59,27.31,58.58a33.87,33.87,0,0,0,7.62,21,33.84,33.84,0,0,0-7.62,21c0,23,24.93,41.63,55.69,41.63s55.69-18.64,55.69-41.63a33.84,33.84,0,0,0-7.62-21A33.87,33.87,0,0,0,138.69,58.58Z"/><path class="cls-4" d="M143.27,58.58c0-25.87-27-46.83-60.27-46.83s-60.27,21-60.27,46.83a38.42,38.42,0,0,0,6.42,21,38.36,38.36,0,0,0-6.42,21c0,25.87,27,46.84,60.27,46.84s60.27-21,60.27-46.84a38.36,38.36,0,0,0-6.42-21A38.42,38.42,0,0,0,143.27,58.58Z"/><path class="cls-4" d="M147.48,58.58C147.48,30.08,118.61,7,83,7S18.52,30.08,18.52,58.58a43,43,0,0,0,5.59,21,42.91,42.91,0,0,0-5.59,21c0,28.5,28.87,51.61,64.48,51.61s64.48-23.11,64.48-51.61a42.91,42.91,0,0,0-5.59-21A43,43,0,0,0,147.48,58.58Z"/><path class="cls-4" d="M151.31,58.58c0-31.1-30.58-56.31-68.31-56.31S14.69,27.48,14.69,58.58a47.72,47.72,0,0,0,4.93,21,47.65,47.65,0,0,0-4.93,21c0,31.1,30.58,56.31,68.31,56.31s68.31-25.21,68.31-56.31a47.65,47.65,0,0,0-4.93-21A47.72,47.72,0,0,0,151.31,58.58Z"/><path class="cls-4" d="M156.18,58.58c0-33.68-32.76-61-73.18-61S9.82,24.9,9.82,58.58a52,52,0,0,0,4.46,21,52,52,0,0,0-4.46,21c0,33.69,32.76,61,73.18,61s73.18-27.3,73.18-61a52,52,0,0,0-4.46-21A52,52,0,0,0,156.18,58.58Z"/><path class="cls-4" d="M161.21,58.58c0-36.68-35-66.41-78.21-66.41S4.79,21.9,4.79,58.58a57.2,57.2,0,0,0,4,21,57.14,57.14,0,0,0-4,21C4.79,137.29,39.8,167,83,167s78.21-29.73,78.21-66.41a57.14,57.14,0,0,0-4-21A57.2,57.2,0,0,0,161.21,58.58Z"/><path class="cls-4" d="M166.61,57.55c0-38.49-37.44-69.68-83.61-69.68S-.61,19.06-.61,57.55a59.23,59.23,0,0,0,4.3,22,59.19,59.19,0,0,0-4.3,22.05c0,38.48,37.44,69.68,83.61,69.68s83.61-31.2,83.61-69.68a59.19,59.19,0,0,0-4.3-22.05A59.23,59.23,0,0,0,166.61,57.55Z"/></g></g></svg>