<svg width="24" height="24" viewBox="0 0 24 24" fill="none" xmlns="http://www.w3.org/2000/svg">
    <defs>
        <symbol id="cancel">
          <path d="M4 4L20 20M20 4C13.7516 10.2484 10.2484 13.7516 4 20" stroke="#ffffff" stroke-width="2" stroke-linecap="round"/>
        </symbol>

        <symbol id="search">
           <path fill-rule="evenodd" clip-rule="evenodd" d="M10.636 5C7.54619 5 5 7.57359 5 10.8C5 14.0264 7.54619 16.6 10.636 16.6C12.2407 16.6 13.6919 15.9107 14.7231 14.7936C15.1848 14.2933 15.5611 13.7082 15.827 13.0633C16.0375 12.5527 16.6221 12.3094 17.1327 12.5199C17.6433 12.7305 17.8865 13.315 17.676 13.8256C17.4445 14.3871 17.1505 14.9151 16.8029 15.4006L20.706 19.2918C21.0971 19.6817 21.0981 20.3149 20.7082 20.706C20.3183 21.0971 19.6851 21.0981 19.294 20.7082L15.4385 16.8645C14.1292 17.9474 12.4583 18.6 10.636 18.6C6.39588 18.6 3 15.0847 3 10.8C3 6.51534 6.39588 3 10.636 3C13.8681 3 16.6133 5.04726 17.7316 7.9129C17.9324 8.4274 17.678 9.00724 17.1635 9.20802C16.649 9.4088 16.0692 9.15448 15.8684 8.63998C15.0308 6.49352 12.9934 5 10.636 5Z"/>


        </symbol>
    </defs>
</svg>
