<svg width="24" height="24" viewBox="0 0 24 24" fill="none" xmlns="http://www.w3.org/2000/svg">
    <defs>
        <symbol id="cancel">
          <path d="M4 4L20 20M20 4C13.7516 10.2484 10.2484 13.7516 4 20" stroke="#ffffff" stroke-width="2" stroke-linecap="round"/>
        </symbol>

        <symbol id="search">
           <path fill-rule="evenodd" clip-rule="evenodd" d="M10.636 5C7.54619 5 5 7.57359 5 10.8C5 14.0264 7.54619 16.6 10.636 16.6C12.2407 16.6 13.6919 15.9107 14.7231 14.7936C15.1848 14.2933 15.5611 13.7082 15.827 13.0633C16.0375 12.5527 16.6221 12.3094 17.1327 12.5199C17.6433 12.7305 17.8865 13.315 17.676 13.8256C17.4445 14.3871 17.1505 14.9151 16.8029 15.4006L20.706 19.2918C21.0971 19.6817 21.0981 20.3149 20.7082 20.706C20.3183 21.0971 19.6851 21.0981 19.294 20.7082L15.4385 16.8645C14.1292 17.9474 12.4583 18.6 10.636 18.6C6.39588 18.6 3 15.0847 3 10.8C3 6.51534 6.39588 3 10.636 3C13.8681 3 16.6133 5.04726 17.7316 7.9129C17.9324 8.4274 17.678 9.00724 17.1635 9.20802C16.649 9.4088 16.0692 9.15448 15.8684 8.63998C15.0308 6.49352 12.9934 5 10.636 5Z"/>


        </symbol>

        <symbol id="filter">
          <path d="M25 1L1 1L11 12.5V21L15 25V12.5L21 7" stroke-width="2" stroke-linecap="round" stroke-linejoin="round"/>
        </symbol>

        <symbol id="home">
          <path d="M22.6667 12.4545H27L14 1L1 12.4545H5.33333V25H22.6667V18.1818" stroke-width="2" stroke-linecap="round" stroke-linejoin="round"/>
        </symbol >

        <symbol id="top">
          <path d="M28 10.9311L17.6705 10.954L14.5 1L11.3295 10.954L1 10.9311L9.37 17.0602L6.15654 27L14.5 20.834L22.8435 27L19.63 17.0602L21.7225 15.5279L23.815 13.9956" stroke-width="2" stroke-linecap="round" stroke-linejoin="round"/>
        </symbol >

        <symbol id="catalog">
          <path d="M25 25H15V15H25V20M1 1H11V11H1V1ZM1 15H11V25H1V15ZM15 1H25V11H15V1Z" stroke-width="2" stroke-linecap="round" stroke-linejoin="round"/>
        </symbol >

        <symbol id="lists">
          <path d="M1 1V0C0.447715 0 0 0.447715 0 1L1 1ZM21 2C21.5523 2 22 1.55228 22 1C22 0.447715 21.5523 0 21 0V2ZM21 24L20.5197 24.8771C20.8295 25.0468 21.2059 25.0404 21.5097 24.8603C21.8136 24.6803 22 24.3532 22 24H21ZM11 18.5238L11.4803 17.6467C11.1811 17.4828 10.8189 17.4828 10.5197 17.6467L11 18.5238ZM1 24H0C0 24.3532 0.186357 24.6803 0.490252 24.8603C0.794148 25.0404 1.17049 25.0468 1.48031 24.8771L1 24ZM22 7.57143C22 7.01914 21.5523 6.57143 21 6.57143C20.4477 6.57143 20 7.01914 20 7.57143H22ZM1 2H21V0H1V2ZM21.4803 23.1229L11.4803 17.6467L10.5197 19.4009L20.5197 24.8771L21.4803 23.1229ZM10.5197 17.6467L0.519685 23.1229L1.48031 24.8771L11.4803 19.4009L10.5197 17.6467ZM2 24V1H0V24H2ZM20 7.57143V24H22V7.57143H20Z" stroke-width="2" stroke-linecap="round" stroke-linejoin="round"/>
        </symbol>

    </defs>
</svg>
