<svg width="29" height="28" viewBox="0 0 29 28" fill="none" xmlns="http://www.w3.org/2000/svg">
<path d="M15.4528 0.696506C15.3206 0.281675 14.9353 0 14.4999 0C14.0646 0 13.6792 0.281675 13.5471 0.696506L10.599 9.95236L1.00216 9.93112C0.569214 9.93016 0.184823 10.2079 0.0498119 10.6193C-0.0851994 11.0306 0.0598356 11.4821 0.409144 11.7379L8.19616 17.4401L5.20498 26.6924C5.07133 27.1058 5.21989 27.5582 5.57259 27.8118C5.92529 28.0655 6.40143 28.0624 6.75082 27.8042L14.4999 22.0774L22.2491 27.8042C22.5985 28.0624 23.0746 28.0655 23.4273 27.8118C23.78 27.5582 23.9286 27.1058 23.7949 26.6924L20.8037 17.4401L28.5907 11.7379C28.9401 11.4821 29.0851 11.0306 28.9501 10.6193C28.8151 10.2079 28.4307 9.93016 27.9977 9.93112L18.4009 9.95236L15.4528 0.696506Z" fill="#2EE5C7"/>
</svg>
