<svg width="6" height="14" viewBox="0 0 6 14" fill="none" xmlns="http://www.w3.org/2000/svg">
<path d="M4.16795 13.5547C4.4743 14.0142 5.09517 14.1384 5.5547 13.8321C6.01423 13.5257 6.1384 12.9048 5.83205 12.4453L4.16795 13.5547ZM1 7L0.16795 6.4453C-0.0559832 6.7812 -0.0559832 7.2188 0.16795 7.5547L1 7ZM5.83205 1.5547C6.1384 1.09517 6.01423 0.474302 5.5547 0.16795C5.09517 -0.138403 4.4743 -0.0142288 4.16795 0.4453L5.83205 1.5547ZM5.83205 12.4453L1.83205 6.4453L0.16795 7.5547L4.16795 13.5547L5.83205 12.4453ZM1.83205 7.5547L5.83205 1.5547L4.16795 0.4453L0.16795 6.4453L1.83205 7.5547Z" fill="white"/>
</svg>
