<svg width="56" height="24" viewBox="0 0 56 24" fill="none" xmlns="http://www.w3.org/2000/svg">
<path d="M31.1252 10.6215H50.8306C52.2105 10.6215 53.5339 10.0736 54.5099 9.09812C55.4858 8.12268 56.0345 6.7996 56.0353 5.41973C56.0353 4.03936 55.487 2.71552 54.5109 1.73945C53.5348 0.763374 52.211 0.215022 50.8306 0.215022H31.1252C29.7448 0.215022 28.421 0.763374 27.4449 1.73945C26.4688 2.71552 25.9205 4.03936 25.9205 5.41973C25.9212 6.7996 26.4699 8.12268 27.4459 9.09812C28.4219 10.0736 29.7453 10.6215 31.1252 10.6215ZM5.20471 23.8763H27.8557C29.2355 23.8763 30.5589 23.3283 31.5349 22.3529C32.5109 21.3775 33.0596 20.0544 33.0604 18.6745C33.0604 17.2941 32.512 15.9703 31.5359 14.9942C30.5599 14.0182 29.236 13.4698 27.8557 13.4698H5.20471C3.82434 13.4698 2.5005 14.0182 1.52442 14.9942C0.548352 15.9703 0 17.2941 0 18.6745H0C0.000780908 20.0544 0.549478 21.3775 1.52547 22.3529C2.50145 23.3283 3.82485 23.8763 5.20471 23.8763ZM3.06627 10.433H5.36377V2.03829H8.33873V0H0.0913107V2.0324H3.06627V10.433ZM11.3431 10.433H13.6406V2.43004H13.6701L16.3211 10.4271H18.0884L20.8277 2.43004H20.8571V10.4271H23.1546V0H19.6642L17.2489 6.80412H17.2194L14.8188 0H11.3431V10.433ZM44.8984 16.3976C44.5911 15.7569 44.1345 15.1993 43.567 14.7717C42.9782 14.3411 42.3092 14.0327 41.5994 13.8645C40.8219 13.6703 40.0237 13.5714 39.2224 13.57H35.7761V23.9971H39.5317C40.2861 24.0007 41.0364 23.8864 41.7555 23.6583C42.4344 23.4517 43.0688 23.12 43.6259 22.6804C44.1678 22.2406 44.6071 21.6877 44.9131 21.0604C45.2439 20.3634 45.4082 19.5991 45.3932 18.8277C45.4172 17.9904 45.2479 17.1589 44.8984 16.3976ZM42.7099 20.2062C42.5376 20.5992 42.2704 20.9434 41.9322 21.2077C41.5808 21.4659 41.1796 21.6485 40.754 21.7437C40.2711 21.855 39.7768 21.9094 39.2813 21.9057H38.0884V15.7202H39.4433C39.9082 15.7179 40.3712 15.7803 40.8188 15.9057C41.2307 16.0168 41.6183 16.2036 41.9617 16.4566C42.2766 16.7044 42.5322 17.0193 42.7099 17.3785C42.9122 17.7927 43.0132 18.249 43.0044 18.7099C43.0173 19.2242 42.9168 19.7351 42.7099 20.2062ZM55.8557 20.1679C55.7516 19.8831 55.5936 19.6211 55.3903 19.3962C55.1879 19.1725 54.9464 18.9878 54.6775 18.8513C54.3842 18.7032 54.0689 18.6037 53.7437 18.5567V18.5272C54.2489 18.3822 54.7012 18.0936 55.0456 17.6966C55.3852 17.2827 55.5612 16.7588 55.5405 16.2239C55.5626 15.7441 55.4449 15.2683 55.2018 14.8542C54.9799 14.5165 54.6758 14.2408 54.3181 14.053C53.9333 13.8543 53.5165 13.7247 53.0869 13.6701C52.6361 13.6057 52.1814 13.5732 51.7261 13.5729H47.838V24H52.109C52.5763 24.0003 53.0423 23.9509 53.4992 23.8527C53.9441 23.7637 54.3704 23.5993 54.7599 23.3667C55.1286 23.1468 55.4411 22.8443 55.673 22.4831C55.9214 22.0673 56.0442 21.5885 56.0265 21.1046C56.027 20.7853 55.9721 20.4684 55.8645 20.1679H55.8557ZM50.1355 15.5287H51.6966C51.8795 15.5294 52.0619 15.5472 52.2415 15.5817C52.4157 15.6131 52.5844 15.6696 52.7423 15.7496C52.8878 15.829 53.0113 15.9434 53.1016 16.0825C53.2011 16.2431 53.2503 16.4298 53.243 16.6186C53.2473 16.8033 53.2037 16.9859 53.1163 17.1487C53.0369 17.2917 52.9236 17.4131 52.7864 17.5022C52.6437 17.5927 52.4862 17.6575 52.321 17.6937C52.1502 17.7339 51.9752 17.7537 51.7997 17.7526H50.1355V15.5287ZM53.5876 21.4197C53.499 21.5734 53.376 21.7045 53.2283 21.8027C53.0785 21.9034 52.9104 21.9734 52.7334 22.0088C52.5575 22.0485 52.3777 22.0682 52.1973 22.0677H50.1355V19.7113H51.8733C52.0704 19.7132 52.2672 19.728 52.4624 19.7555C52.6697 19.784 52.8726 19.8384 53.0663 19.9175C53.2469 19.9932 53.4058 20.1126 53.5287 20.2651C53.6569 20.4341 53.7225 20.6423 53.7143 20.8542C53.7237 21.0507 53.68 21.2461 53.5876 21.4197Z" fill="white"/>
</svg>
