<svg width="6" height="15" viewBox="0 0 6 15" fill="none" xmlns="http://www.w3.org/2000/svg">
<path d="M1.83205 0.9453C1.5257 0.485771 0.904829 0.361597 0.4453 0.66795C-0.0142288 0.974302 -0.138403 1.59517 0.16795 2.0547L1.83205 0.9453ZM5 7.5L5.83205 8.0547C6.05598 7.7188 6.05598 7.2812 5.83205 6.9453L5 7.5ZM0.16795 12.9453C-0.138403 13.4048 -0.0142288 14.0257 0.4453 14.3321C0.904829 14.6384 1.5257 14.5142 1.83205 14.0547L0.16795 12.9453ZM0.16795 2.0547L4.16795 8.0547L5.83205 6.9453L1.83205 0.9453L0.16795 2.0547ZM4.16795 6.9453L0.16795 12.9453L1.83205 14.0547L5.83205 8.0547L4.16795 6.9453Z" fill="white"/>
</svg>
