<svg width="21" height="20" viewBox="0 0 21 20" fill="none" xmlns="http://www.w3.org/2000/svg">
<path d="M11.1899 0.497504C11.0942 0.201197 10.8152 0 10.4999 0C10.1847 0 9.90564 0.201197 9.80996 0.497504L7.67509 7.10883L0.725669 7.09366C0.412156 7.09297 0.133804 7.29137 0.0360371 7.5852C-0.0617299 7.87902 0.0432956 8.20153 0.296243 8.38424L5.93513 12.4572L3.76909 19.066C3.67232 19.3613 3.77989 19.6844 4.0353 19.8656C4.2907 20.0468 4.63549 20.0446 4.8885 19.8602L10.4999 15.7696L16.1114 19.8602C16.3644 20.0446 16.7092 20.0468 16.9646 19.8656C17.22 19.6844 17.3276 19.3613 17.2308 19.066L15.0648 12.4572L20.7036 8.38424C20.9566 8.20153 21.0616 7.87902 20.9639 7.5852C20.8661 7.29137 20.5877 7.09297 20.2742 7.09366L13.3248 7.10883L11.1899 0.497504Z" fill="#F2C94C"/>
</svg>
