<svg width="32" height="32" viewBox="0 0 32 32" fill="none" xmlns="http://www.w3.org/2000/svg">
<path d="M25.6019 23.9399C25.8449 24.4359 26.4439 24.641 26.9399 24.3981C27.4359 24.1551 27.641 23.5561 27.3981 23.0601L25.6019 23.9399ZM27.5 29C28.0523 29 28.5 28.5523 28.5 28C28.5 27.4477 28.0523 27 27.5 27V29ZM27.3981 23.0601L27.1388 22.5307L25.3426 23.4105L25.6019 23.9399L27.3981 23.0601ZM4.54178 23.3849L3.5155 26.3448L5.40514 27L6.43142 24.0401L4.54178 23.3849ZM5.40514 29H27.5V27H5.40514V29ZM22.7071 18.4913C18.4125 16.851 13.6273 16.8304 9.32476 18.4623L10.034 20.3323C13.874 18.8759 18.1528 18.8927 21.9935 20.3596L22.7071 18.4913ZM3.5155 26.3448C3.06498 27.6442 4.0299 29 5.40514 29V27H5.40514L3.5155 26.3448ZM6.43142 24.0401C7.02382 22.3316 8.34325 20.9736 10.034 20.3323L9.32476 18.4623C7.08 19.3137 5.32828 21.1166 4.54178 23.3849L6.43142 24.0401ZM27.1388 22.5307C26.2291 20.6735 24.6348 19.2275 22.7071 18.4913L21.9935 20.3596C23.4525 20.9169 24.6577 22.012 25.3426 23.4105L27.1388 22.5307Z" fill="white"/>
<circle cx="16" cy="9" r="6" stroke="white" stroke-width="2"/>
</svg>
