<svg width="93" height="34" viewBox="0 0 93 34" fill="none" xmlns="http://www.w3.org/2000/svg">
<path d="M7.73483 33.9946C6.77005 33.9946 6.17123 33.5089 5.93835 32.5377L0.0499029 1.40835L0 1.01984C0 0.728457 0.0998044 0.485638 0.299413 0.291384C0.499021 0.097128 0.748531 0 1.04794 0H5.53913C5.97162 0 6.28767 0.0809388 6.48727 0.242818C6.68688 0.372321 6.81996 0.61514 6.88649 0.971275L11.0284 22.8249L15.4697 8.74146C15.8023 7.93207 16.3513 7.52737 17.1164 7.52737H19.861C20.2935 7.52737 20.6428 7.65688 20.909 7.91588C21.1751 8.14251 21.3581 8.41771 21.4579 8.74146L25.9491 22.8249L28.1634 11.0611C28.2632 10.4136 28.729 10.0898 29.5607 10.0898H34.0519C34.1338 10.0898 34.2126 10.099 34.2882 10.1174H63.5569C63.9893 10.1174 64.3054 10.1984 64.505 10.3603C64.7046 10.4898 64.8377 10.7326 64.9042 11.0887L67.1008 22.8249L71.5421 8.74146C71.8748 7.93207 72.4237 7.52737 73.1889 7.52737H75.9335C76.366 7.52737 76.7153 7.65688 76.9814 7.91588C77.2476 8.14251 77.4305 8.41771 77.5303 8.74146L82.0215 22.8249L86.1135 0.971275C86.2133 0.323758 86.6791 0 87.5108 0H92.002C92.2681 0 92.501 0.097128 92.7006 0.291384C92.9002 0.485638 93 0.728457 93 1.01984C93 1.18172 92.9834 1.31122 92.9501 1.40835L87.0617 32.5377C86.9951 32.9909 86.7955 33.3471 86.4628 33.6061C86.1634 33.8651 85.7642 33.9946 85.2652 33.9946H81.8718C81.4061 33.9946 81.0235 33.8813 80.7241 33.6546C80.4247 33.3956 80.2251 33.1042 80.1253 32.7805L74.5362 16.6573L68.9472 32.7805C68.681 33.5899 68.0989 33.9946 67.2006 33.9946H63.8073C62.8425 33.9946 62.2437 33.5089 62.0108 32.5377L58.9425 16.1879H50.0421V32.8291C50.0421 33.1528 49.9256 33.428 49.6928 33.6546C49.4932 33.8813 49.2104 33.9946 48.8444 33.9946H44.1536C43.8209 33.9946 43.5382 33.8813 43.3053 33.6546C43.0724 33.428 42.956 33.1528 42.956 32.8291V16.1879H34.106L30.9892 32.5377C30.9227 32.9909 30.7231 33.3471 30.3904 33.6061C30.091 33.8651 29.6918 33.9946 29.1927 33.9946H25.7994C25.3336 33.9946 24.9511 33.8813 24.6516 33.6546C24.3522 33.3956 24.1526 33.1042 24.0528 32.7805L18.4638 16.6573L12.8747 32.7805C12.6086 33.5899 12.0264 33.9946 11.1282 33.9946H7.73483Z" fill="white"/>
</svg>
